<?xml version="1.0" standalone="no"?>
<!DOCTYPE svg PUBLIC "-//W3C//DTD SVG 20010904//EN"
 "http://www.w3.org/TR/2001/REC-SVG-20010904/DTD/svg10.dtd">
<svg version="1.0" xmlns="http://www.w3.org/2000/svg"
 width="550.000000pt" height="550.000000pt" viewBox="0 0 550.000000 550.000000"
 preserveAspectRatio="xMidYMid meet">

<g transform="translate(0.000000,550.000000) scale(0.100000,-0.100000)"
fill="#ffffff" stroke="none">
<path d="M2545 5494 c-531 -44 -1019 -228 -1445 -545 -167 -124 -425 -382
-549 -549 -286 -384 -456 -800 -528 -1285 -24 -167 -24 -561 1 -730 70 -486
243 -905 533 -1294 115 -154 382 -421 533 -532 401 -297 806 -464 1295 -536
168 -24 562 -24 730 0 486 71 906 245 1294 534 152 114 420 382 534 534 289
388 463 808 534 1294 12 89 17 184 17 365 0 181 -5 276 -17 365 -71 486 -245
906 -534 1294 -114 152 -382 420 -533 533 -385 286 -795 458 -1260 529 -132
19 -483 33 -605 23z m560 -964 c369 -79 686 -252 945 -514 l75 -76 -595 -595
-595 -595 595 -595 595 -596 -115 -112 c-146 -142 -268 -229 -445 -317 -230
-115 -430 -170 -685 -191 -322 -26 -641 39 -945 191 -178 90 -300 176 -445
317 l-115 112 595 596 595 595 -595 595 -595 595 80 81 c274 277 632 460 1024
524 134 22 496 13 626 -15z"/>
</g>
</svg>
